<svg id="Capa_1" enable-background="new 0 0 512 512" height="512" viewBox="0 0 512 512" width="512" xmlns="http://www.w3.org/2000/svg"><g><g><g fill="#f7c4db"><path d="m157.198 184.627s-13.133-74.347 6.351-83.708 69.317 47.354 69.317 47.354l-73.616 47.645z"/><path d="m312.194 148.273s49.834-56.714 69.317-47.354c19.483 9.361 6.351 83.708 6.351 83.708"/><path d="m123.748 507.331c-47.622 0-86.367-38.744-86.367-86.367v-25.122c0-13.605 11.029-24.634 24.634-24.634s24.634 11.029 24.634 24.634v25.122c0 20.315 16.413 36.868 36.674 37.096l24.521-.964c13.586-.532 25.049 10.053 25.583 23.647.535 13.595-10.053 25.049-23.647 25.583l-25.064.985c-.323.014-.645.02-.968.02z"/><path d="m412.405 271.094c.455-4.708.671-9.486.635-14.321-.543-74.024-60.786-134.666-134.806-135.672-76.373-1.037-138.609 60.561-138.609 136.696 0 3.623.141 7.214.418 10.766 2.127 27.264-1.01 54.68-9.786 80.581-7.093 20.933-10.993 43.762-10.993 67.663 0 32.781 7.34 63.546 20.185 90.17h271.833c12.845-26.624 20.185-57.389 20.185-90.17 0-22.652-3.502-44.343-9.904-64.37-8.399-26.27-11.81-53.89-9.158-81.343z"/></g><g fill="#c56cb7"><ellipse cx="211.374" cy="230.65" rx="12.617" ry="12.617" transform="matrix(.23 -.973 .973 .23 -61.67 383.377)"/><ellipse cx="339.357" cy="230.65" rx="12.617" ry="12.617" transform="matrix(.707 -.707 .707 .707 -63.699 307.518)"/></g><path d="m291.27 242.308c0 9.551-7.121 17.294-15.905 17.294s-15.905-7.743-15.905-17.294l15.728-12.654z" fill="#ef8bbd"/><g><g><path d="m253.893 246.226c-3.388 0-6.135-2.747-6.135-6.135s2.747-6.135 6.135-6.135c8.379 0 15.195-6.817 15.195-15.196 0-3.388 2.747-6.135 6.135-6.135s6.135 2.747 6.135 6.135c0 15.144-12.32 27.466-27.465 27.466z" fill="#c56cb7"/></g><g><path d="m296.838 246.226c-15.144 0-27.465-12.321-27.465-27.466 0-3.388 2.747-6.135 6.135-6.135s6.135 2.747 6.135 6.135c0 8.379 6.817 15.196 15.195 15.196 3.388 0 6.135 2.747 6.135 6.135s-2.747 6.135-6.135 6.135z" fill="#c56cb7"/></g></g><path d="m411.572 506.856c19.4 0 35.127-12.633 35.127-28.217s-15.727-28.217-35.127-28.217v24.42z" fill="#f7c4db"/><g><path d="m428.267 453.808c2.09-11.952 3.199-24.323 3.199-37 0-22.652-3.502-44.344-9.904-64.371-8.517-26.64-11.493-54.676-9.046-82.537.379-4.321.558-8.7.525-13.127-.209-28.425-9.228-54.87-24.441-76.73 2.477-16.327 9.464-71.172-7.088-79.124-6.523-3.134-16.448 1.14-26.765 8.211 5.897 16.341 1.614 49.84-.126 61.408 13.294 19.267 21.175 42.577 21.358 67.631.031 4.262-.158 8.473-.555 12.623-2.318 24.198.662 48.542 8.002 71.698 5.595 17.652 8.648 36.4 10.196 56.306.855 11 .114 29.125-.457 39.779s-7.737 40.023-31.9 40.023l-174.277.107c-34.352 0-63.28-25.933-66.733-60.111-.039-.391-.078-.781-.115-1.173-.571 6.372-.874 12.837-.874 19.386 0 32.781 7.34 63.546 20.185 90.17h271.832c.099-.206.191-.417.29-.624v.503c19.4 0 35.127-12.633 35.127-28.217-.001-10.729-7.457-20.059-18.433-24.831z" fill="#e893db"/></g><g><path d="m271.567 512c-3.575 0-7.045-1.878-8.922-5.216-2.768-4.923-1.02-11.156 3.902-13.924 6.134-3.448 9.795-8.765 9.795-14.221 0-9.753-11.404-17.992-24.903-17.992-5.647 0-10.225-4.578-10.225-10.225s4.578-10.225 10.225-10.225c25.008 0 45.353 17.245 45.353 38.442 0 12.947-7.56 24.927-20.224 32.047-1.583.891-3.304 1.314-5.001 1.314z" fill="#c56cb7"/></g><g><path d="m229.54 408.581c-12.872.001-26.173-8.695-33.058-22.982-1.471-3.052-.189-6.719 2.863-8.19 3.053-1.471 6.72-.19 8.19 2.863 6.104 12.666 18.861 19.216 28.436 14.602s12.398-18.674 6.295-31.34c-1.471-3.052-.189-6.719 2.864-8.19 3.048-1.468 6.719-.19 8.19 2.863 9.041 18.761 3.649 40.169-12.021 47.72-3.738 1.801-7.728 2.654-11.759 2.654z" fill="#c56cb7"/></g><g><path d="m358.545 398.512c-4.51 0-9.14-1.078-13.654-3.231-8.175-3.898-15.03-10.928-19.302-19.793-1.471-3.053-.189-6.719 2.864-8.19 3.049-1.468 6.718-.19 8.19 2.863 3.063 6.358 7.868 11.346 13.53 14.046 5.206 2.483 10.499 2.681 14.906.557 4.406-2.123 7.55-6.387 8.851-12.006 1.416-6.11.507-12.976-2.557-19.334-1.471-3.052-.189-6.719 2.863-8.19 3.051-1.469 6.72-.19 8.191 2.863 4.273 8.866 5.501 18.608 3.457 27.43-2.158 9.314-7.654 16.52-15.478 20.29-3.733 1.798-7.747 2.695-11.861 2.695z" fill="#c56cb7"/></g><path d="m250.506 153.801c-.006-.348.003-.7.048-1.057-.741-13.544 2.299-25.604 10.859-35.5-1.139-15.127 1.802-27.249 10.735-35.094 3.314-17.139 9.186-35.637 16.85-55.085.909-2.973 5.271-2.436 5.432.669 2.671 16.638 4.159 32.186 2.321 44.67 4.947 9.574 5.923 19.589 1.57 30.219 4.182 9.757 5.276 20.19 1.641 31.586 5.854 10.121 3.073 20.106 2.168 24.798-4.037 15.839-51.357 10.246-51.624-5.206z" fill="#ffe266"/><path d="m250.506 153.801c-.006-.348.003-.699.048-1.057-.526-9.618.868-18.483 4.779-26.361-.227 2.514-.269 5.097-.127 7.75-.04.306-.049.606-.045.903.198 13.187 41.828 17.844 45.417 4.318.156-.773.374-1.717.587-2.795 4.224 9.288 1.798 18.122.963 22.45-4.035 15.837-51.355 10.244-51.622-5.208z" fill="#efaa66"/><g><g><path d="m275.371 84.397c-2.26 0-4.434-1.253-5.504-3.415-1.503-3.037-.259-6.717 2.778-8.219l18.945-9.375c3.039-1.5 6.717-.258 8.22 2.778 1.503 3.037.259 6.717-2.778 8.219l-18.945 9.375c-.875.432-1.802.637-2.716.637z" fill="#d0844b"/></g><g><path d="m264.561 122.134c-2.376 0-4.638-1.389-5.638-3.71-1.34-3.112.096-6.721 3.208-8.062l33.458-14.411c3.112-1.34 6.721.096 8.061 3.208s-.096 6.721-3.208 8.062l-33.458 14.411c-.79.341-1.613.502-2.423.502z" fill="#d0844b"/></g><g><path d="m253.896 160.165c-2.377 0-4.639-1.39-5.638-3.712-1.339-3.112.099-6.721 3.211-8.06l46.067-19.819c3.11-1.341 6.72.099 8.06 3.211 1.339 3.112-.099 6.721-3.211 8.06l-46.067 19.819c-.79.34-1.613.501-2.422.501z" fill="#d0844b"/></g></g><g><path d="m168.663 353.684c-1.356 0-2.734-.271-4.058-.844-5.182-2.244-7.564-8.264-5.32-13.446 1.786-4.123 3.752-8.184 5.845-12.068 2.678-4.972 8.88-6.83 13.851-4.151 4.972 2.679 6.83 8.88 4.151 13.851-1.817 3.373-3.527 6.903-5.081 10.493-1.671 3.858-5.435 6.165-9.388 6.165z" fill="#fff"/></g><g><path d="m155.092 436.538c-5.203 0-9.654-3.954-10.165-9.24-1.678-17.34-.448-35.509 3.657-54.003 1.223-5.513 6.684-8.992 12.197-7.766 5.513 1.224 8.99 6.684 7.766 12.197-3.638 16.391-4.737 32.406-3.266 47.602.544 5.621-3.571 10.618-9.192 11.162-.334.032-.667.048-.997.048z" fill="#fff"/></g><g><path d="m81.802 415.494h-37.933c-3.388 0-6.135-2.747-6.135-6.135s2.747-6.135 6.135-6.135h37.933c3.388 0 6.135 2.747 6.135 6.135s-2.747 6.135-6.135 6.135z" fill="#c56cb7"/></g><g><path d="m85.152 445.553h-39.66c-3.388 0-6.135-2.747-6.135-6.135s2.747-6.135 6.135-6.135h39.66c3.388 0 6.135 2.747 6.135 6.135-.001 3.389-2.748 6.135-6.135 6.135z" fill="#c56cb7"/></g></g><path d="m51.567 2.619 8.789 24.714c.376 1.058 1.121 1.897 2.062 2.32l21.958 9.893c3.102 1.398 3.102 6.34 0 7.738l-21.958 9.893c-.94.424-1.685 1.262-2.062 2.32l-8.789 24.714c-1.242 3.492-5.633 3.492-6.875 0l-8.789-24.714c-.376-1.058-1.121-1.897-2.062-2.32l-21.958-9.893c-3.102-1.398-3.102-6.34 0-7.738l21.958-9.893c.94-.424 1.685-1.262 2.062-2.32l8.789-24.714c1.242-3.492 5.633-3.492 6.875 0z" fill="#e9c3d9"/><path d="m476.381 34.823 6.52 18.333c.279.785.832 1.407 1.529 1.721l16.288 7.338c2.301 1.037 2.301 4.703 0 5.74l-16.288 7.338c-.697.314-1.25.936-1.529 1.721l-6.52 18.333c-.921 2.59-4.179 2.59-5.1 0l-6.52-18.333c-.279-.785-.832-1.407-1.529-1.721l-16.288-7.338c-2.301-1.037-2.301-4.703 0-5.74l16.288-7.338c.697-.314 1.25-.936 1.529-1.721l6.52-18.333c.921-2.59 4.179-2.59 5.1 0z" fill="#e9c3d9"/><g fill="#d88aba"><path d="m212.167 37.314c0 4.572-3.707 8.279-8.279 8.279s-8.279-3.707-8.279-8.279 3.707-8.279 8.279-8.279 8.279 3.707 8.279 8.279z"/><circle cx="81.634" cy="159.426" r="14.515"/></g></g></svg>